<?xml version="1.0" encoding="UTF-8" standalone="no"?>
<!-- Created with Inkscape (http://www.inkscape.org/) -->

<svg
   xmlns:dc="http://purl.org/dc/elements/1.1/"
   xmlns:cc="http://creativecommons.org/ns#"
   xmlns:rdf="http://www.w3.org/1999/02/22-rdf-syntax-ns#"
   xmlns:svg="http://www.w3.org/2000/svg"
   xmlns="http://www.w3.org/2000/svg"
   xmlns:sodipodi="http://sodipodi.sourceforge.net/DTD/sodipodi-0.dtd"
   xmlns:inkscape="http://www.inkscape.org/namespaces/inkscape"
   width="128"
   height="128"
   viewBox="0 0 128 128"
   id="svg2"
   version="1.1"
   inkscape:version="0.91 r13725"
   sodipodi:docname="asesora.svg"
   inkscape:export-filename="/home/elferrer/Documentos/asesora.png"
   inkscape:export-xdpi="15.764436"
   inkscape:export-ydpi="15.764436">
  <defs
     id="defs4" />
  <sodipodi:namedview
     id="base"
     pagecolor="#ffffff"
     bordercolor="#666666"
     borderopacity="1.0"
     inkscape:pageopacity="0.0"
     inkscape:pageshadow="2"
     inkscape:zoom="0.7791994"
     inkscape:cx="-36.705637"
     inkscape:cy="526.1811"
     inkscape:document-units="px"
     inkscape:current-layer="layer1"
     showgrid="false"
     showguides="true"
     inkscape:window-width="1920"
     inkscape:window-height="1015"
     inkscape:window-x="0"
     inkscape:window-y="0"
     inkscape:window-maximized="1"
     units="px" />
  <metadata
     id="metadata7">
    <rdf:RDF>
      <cc:Work
         rdf:about="">
        <dc:format>image/svg+xml</dc:format>
        <dc:type
           rdf:resource="http://purl.org/dc/dcmitype/StillImage" />
        <dc:title></dc:title>
      </cc:Work>
    </rdf:RDF>
  </metadata>
  <g
     inkscape:label="Layer 1"
     inkscape:groupmode="layer"
     id="layer1"
     transform="translate(0,-924.36216)">
    <g
       id="g4262"
       transform="matrix(1.034396,0,0,1.034396,-228.52555,51.313062)">
      <rect
         ry="9.3439112"
         rx="9.3439112"
         y="866.7467"
         x="227.53685"
         height="101.01525"
         width="41.416256"
         id="rect4147"
         style="fill:#000080;fill-opacity:1;stroke:none" />
      <rect
         ry="0"
         rx="0"
         y="844.01825"
         x="255.31606"
         height="12.879445"
         width="10.354064"
         id="rect4149"
         style="fill:#000080;fill-opacity:1;stroke:none" />
      <rect
         transform="matrix(0,1,-1,0,0,0)"
         style="fill:#000080;fill-opacity:1;stroke:none"
         id="rect4151"
         width="10.354064"
         height="12.879445"
         x="872.30255"
         y="-294.45944"
         rx="0"
         ry="0" />
      <rect
         ry="0"
         rx="0"
         y="405.19278"
         x="799.49115"
         height="12.879445"
         width="10.354064"
         id="rect4153"
         style="fill:#000080;fill-opacity:1;stroke:none"
         transform="matrix(0.70710678,0.70710678,-0.70710678,0.70710678,0,0)" />
      <path
         id="path4240"
         d="m 324.46786,945.93533 c -0.54792,0 -1.09413,0.0903 -1.63476,0.26367 -0.53751,0.16046 -1.03714,0.47618 -1.50586,0.89453 l 0.01,-0.86523 -3.47657,0 0.0293,12.39062 3.38672,0 0.0273,-5.91601 c 0,-0.39151 0.10272,-0.83488 0.32813,-1.33399 l 0.002,-0.004 0,-0.002 c 0.23049,-0.52684 0.48818,-0.93727 0.75977,-1.24024 0.3015,-0.31394 0.66714,-0.51819 1.14648,-0.62305 l 0.006,0 0.006,-0.002 c 0.52597,-0.12751 0.97535,-0.13742 1.36523,-0.0508 l 0.40235,0.0879 1.31836,-3 -0.44532,-0.20703 c -0.55543,-0.25788 -1.13656,-0.39258 -1.72461,-0.39258 z"
         style="color:#000000;font-style:normal;font-variant:normal;font-weight:500;font-stretch:normal;font-size:26.55158234px;line-height:125%;font-family:BetecknaLowerCase;-inkscape-font-specification:'BetecknaLowerCase, Medium';text-indent:0;text-align:start;text-decoration:none;text-decoration-line:none;text-decoration-style:solid;text-decoration-color:#000000;letter-spacing:0px;word-spacing:0px;text-transform:none;direction:ltr;block-progression:tb;writing-mode:lr-tb;baseline-shift:baseline;text-anchor:start;white-space:normal;clip-rule:nonzero;display:inline;overflow:visible;visibility:visible;opacity:1;isolation:auto;mix-blend-mode:normal;color-interpolation:sRGB;color-interpolation-filters:linearRGB;solid-color:#000000;solid-opacity:1;fill:#000080;fill-opacity:1;fill-rule:nonzero;stroke:none;stroke-width:1px;stroke-linecap:butt;stroke-linejoin:miter;stroke-miterlimit:4;stroke-dasharray:none;stroke-dashoffset:0;stroke-opacity:1;color-rendering:auto;image-rendering:auto;shape-rendering:auto;text-rendering:auto;enable-background:accumulate"
         inkscape:connector-curvature="0" />
      <path
         id="path4238"
         d="m 275.16122,946.06814 c -0.82514,0 -1.56774,0.1229 -2.2207,0.37891 -0.63994,0.23335 -1.15516,0.55778 -1.51172,1.00195 -0.3108,0.37052 -0.54724,0.76375 -0.69336,1.17774 -2.3e-4,6.3e-4 2.3e-4,10e-4 0,0.002 -0.14116,0.38376 -0.21679,0.76954 -0.21679,1.15234 0,0.68027 0.16308,1.34015 0.48046,1.95508 l 0.002,0.006 0.004,0.006 c 0.35901,0.65465 0.95058,1.15107 1.70508,1.46875 l 0.0137,0.006 0.0137,0.004 c 0.34032,0.12011 1.1485,0.36241 2.49414,0.75195 0.40155,0.11898 0.59868,0.27654 0.69336,0.4375 l 0.008,0.0156 0.01,0.0137 c 0.12659,0.18412 0.12982,0.25472 0.0781,0.39257 -0.051,0.13602 -0.18521,0.28539 -0.47266,0.43946 -0.26417,0.12416 -0.606,0.17636 -1.06445,0.11523 l -0.004,0 -0.004,0 c -0.93658,-0.11112 -1.61397,-0.4795 -2.13672,-1.14062 l -0.32617,-0.41407 -2.49414,2.19922 0.17968,0.34571 c 0.3887,0.75579 1.11841,1.32766 2.10742,1.74609 l 0.006,0.002 0.006,0.002 c 0.974,0.38592 1.79395,0.58701 2.50586,0.5664 0.78925,-0.0183 1.48681,-0.1007 2.09961,-0.2539 l 0.008,-0.002 0.006,-0.002 c 0.64528,-0.18148 1.22773,-0.52104 1.72461,-0.99805 0.42697,-0.40698 0.75229,-0.90856 0.97071,-1.48437 0.21826,-0.57542 0.30686,-1.18666 0.26953,-1.81446 -0.0228,-0.71414 -0.33336,-1.39296 -0.86914,-1.98828 -0.55308,-0.61453 -1.3291,-1.06284 -2.29297,-1.36523 l -0.0273,-0.008 -1.22657,-0.23438 c -0.35424,-0.11456 -0.58377,-0.2585 -0.71093,-0.39648 -0.12853,-0.13947 -0.17969,-0.26674 -0.17969,-0.47656 0,-0.23514 0.0485,-0.32326 0.17773,-0.42579 0.20747,-0.14959 0.39206,-0.22415 0.55664,-0.24609 l 0.0117,-0.002 0.0137,-0.004 c 0.23933,-0.0449 0.43906,-0.0484 0.60157,-0.0234 l 0.004,0.002 0.006,0 c 0.54641,0.0738 0.95487,0.29468 1.30664,0.70507 l 0.40039,0.46875 1.93946,-2.53125 -0.30079,-0.31054 c -0.83021,-0.85097 -2.08215,-1.24024 -3.65039,-1.24024 z"
         style="color:#000000;font-style:normal;font-variant:normal;font-weight:500;font-stretch:normal;font-size:26.55158234px;line-height:125%;font-family:BetecknaLowerCase;-inkscape-font-specification:'BetecknaLowerCase, Medium';text-indent:0;text-align:start;text-decoration:none;text-decoration-line:none;text-decoration-style:solid;text-decoration-color:#000000;letter-spacing:0px;word-spacing:0px;text-transform:none;direction:ltr;block-progression:tb;writing-mode:lr-tb;baseline-shift:baseline;text-anchor:start;white-space:normal;clip-rule:nonzero;display:inline;overflow:visible;visibility:visible;opacity:1;isolation:auto;mix-blend-mode:normal;color-interpolation:sRGB;color-interpolation-filters:linearRGB;solid-color:#000000;solid-opacity:1;fill:#000080;fill-opacity:1;fill-rule:nonzero;stroke:none;stroke-width:1px;stroke-linecap:butt;stroke-linejoin:miter;stroke-miterlimit:4;stroke-dasharray:none;stroke-dashoffset:0;stroke-opacity:1;color-rendering:auto;image-rendering:auto;shape-rendering:auto;text-rendering:auto;enable-background:accumulate"
         inkscape:connector-curvature="0" />
      <path
         id="path4236"
         d="m 299.48154,946.06814 c -0.82515,0 -1.5658,0.1229 -2.21875,0.37891 -0.63899,0.23301 -1.15522,0.55684 -1.51172,1 -0.31138,0.37092 -0.54707,0.76519 -0.69336,1.17969 -2.3e-4,6.3e-4 2.3e-4,10e-4 0,0.002 -0.14117,0.38376 -0.2168,0.76954 -0.2168,1.15234 0,0.68027 0.16308,1.34015 0.48047,1.95508 l 0.002,0.006 0.004,0.006 c 0.359,0.65465 0.94862,1.15107 1.70312,1.46875 l 0.0137,0.006 0.0156,0.004 c 0.34008,0.12003 1.14829,0.3629 2.49219,0.75195 0.40155,0.11898 0.59868,0.27654 0.69336,0.4375 l 0.01,0.0156 0.01,0.0137 c 0.12659,0.18412 0.12787,0.25472 0.0762,0.39257 -0.051,0.13601 -0.18329,0.28539 -0.4707,0.43946 -0.26418,0.12416 -0.60795,0.17636 -1.06641,0.11523 l -0.002,0 -0.004,0 c -0.93657,-0.11112 -1.61397,-0.4795 -2.13672,-1.14062 l -0.32617,-0.41407 -2.49414,2.19922 0.17774,0.34571 c 0.38869,0.75579 1.12035,1.32766 2.10937,1.74609 l 0.006,0.002 0.004,0.002 c 0.97472,0.38621 1.79749,0.58735 2.50976,0.5664 0.78747,-0.0186 1.48598,-0.10098 2.09766,-0.2539 l 0.008,-0.002 0.006,-0.002 c 0.64441,-0.18124 1.22621,-0.52009 1.72266,-0.99609 l 0.002,-0.002 c 0.42659,-0.40685 0.75242,-0.90891 0.9707,-1.48437 0.21826,-0.57542 0.30686,-1.18666 0.26953,-1.81446 -0.0228,-0.71414 -0.33336,-1.39296 -0.86914,-1.98828 -0.55308,-0.61453 -1.3291,-1.06284 -2.29297,-1.36523 l -0.0273,-0.008 -1.22461,-0.23438 c -0.35553,-0.11467 -0.58741,-0.25821 -0.71484,-0.39648 -0.12853,-0.13947 -0.17969,-0.26674 -0.17969,-0.47656 0,-0.23514 0.0504,-0.32326 0.17969,-0.42579 0.20745,-0.14957 0.39011,-0.22415 0.55469,-0.24609 l 0.0137,-0.002 0.0137,-0.004 c 0.23933,-0.0449 0.43905,-0.0484 0.60156,-0.0234 l 0.004,0.002 0.004,0 c 0.54641,0.0738 0.95683,0.29468 1.3086,0.70507 l 0.40039,0.46875 1.93945,-2.53125 -0.30273,-0.31054 c -0.83021,-0.85097 -2.08216,-1.24024 -3.65039,-1.24024 z"
         style="color:#000000;font-style:normal;font-variant:normal;font-weight:500;font-stretch:normal;font-size:26.55158234px;line-height:125%;font-family:BetecknaLowerCase;-inkscape-font-specification:'BetecknaLowerCase, Medium';text-indent:0;text-align:start;text-decoration:none;text-decoration-line:none;text-decoration-style:solid;text-decoration-color:#000000;letter-spacing:0px;word-spacing:0px;text-transform:none;direction:ltr;block-progression:tb;writing-mode:lr-tb;baseline-shift:baseline;text-anchor:start;white-space:normal;clip-rule:nonzero;display:inline;overflow:visible;visibility:visible;opacity:1;isolation:auto;mix-blend-mode:normal;color-interpolation:sRGB;color-interpolation-filters:linearRGB;solid-color:#000000;solid-opacity:1;fill:#000080;fill-opacity:1;fill-rule:nonzero;stroke:none;stroke-width:1px;stroke-linecap:butt;stroke-linejoin:miter;stroke-miterlimit:4;stroke-dasharray:none;stroke-dashoffset:0;stroke-opacity:1;color-rendering:auto;image-rendering:auto;shape-rendering:auto;text-rendering:auto;enable-background:accumulate"
         inkscape:connector-curvature="0" />
      <path
         d="m 310.89951,949.00759 c 0.79838,0 1.41984,0.1995 1.92773,0.58789 l 0.002,0.002 0.002,0.002 c 0.54852,0.40748 0.87846,0.86731 1.04101,1.41407 l 0.002,0.008 0.004,0.008 c 0.18518,0.55555 0.22513,1.14569 0.11328,1.80078 -0.10922,0.62231 -0.3572,1.13642 -0.7539,1.58008 -0.59605,0.65718 -1.35829,0.97852 -2.41797,0.97852 -0.67982,0 -1.23751,-0.15575 -1.7168,-0.45313 -0.47813,-0.32591 -0.80671,-0.70579 -1.01367,-1.16406 -0.21684,-0.48015 -0.32313,-0.99739 -0.32422,-1.56641 0.0169,-0.57127 0.13252,-1.08254 0.34766,-1.54492 0.22412,-0.46148 0.56959,-0.84914 1.07031,-1.17773 0.48054,-0.31536 1.03704,-0.47461 1.7168,-0.47461 z m 0.0273,-2.91205 c -1.33189,0 -2.52805,0.30438 -3.55078,0.92187 -1.00308,0.60563 -1.76749,1.38265 -2.25586,2.32031 l -0.002,0.004 -0.002,0.004 c -0.45899,0.91797 -0.69791,1.92531 -0.71679,3.00195 -0.019,1.06228 0.19141,2.07357 0.63085,3.00977 l 0.002,0.002 0,0.002 c 0.45308,0.94557 1.20548,1.72887 2.21093,2.33594 1.02392,0.61821 2.22763,0.92187 3.57618,0.92187 1.33189,0 2.52805,-0.30437 3.55078,-0.92187 1.00426,-0.60635 1.76358,-1.38655 2.23437,-2.32813 l 0,-0.002 0.002,-0.002 c 0.45735,-0.93377 0.68693,-1.94266 0.6875,-3.00391 0.0183,-1.07714 -0.19169,-2.0872 -0.63282,-3.00781 -0.45186,-0.94303 -1.19222,-1.72631 -2.17968,-2.33399 -1.00818,-0.62041 -2.20614,-0.92382 -3.55469,-0.92382 z"
         style="color:#000000;font-style:normal;font-variant:normal;font-weight:500;font-stretch:normal;font-size:26.55158234px;line-height:125%;font-family:BetecknaLowerCase;-inkscape-font-specification:'BetecknaLowerCase, Medium';text-indent:0;text-align:start;text-decoration:none;text-decoration-line:none;text-decoration-style:solid;text-decoration-color:#000000;letter-spacing:0px;word-spacing:0px;text-transform:none;direction:ltr;block-progression:tb;writing-mode:lr-tb;baseline-shift:baseline;text-anchor:start;white-space:normal;clip-rule:nonzero;display:inline;overflow:visible;visibility:visible;opacity:1;isolation:auto;mix-blend-mode:normal;color-interpolation:sRGB;color-interpolation-filters:linearRGB;solid-color:#000000;solid-opacity:1;fill:#000080;fill-opacity:1;fill-rule:nonzero;stroke:none;stroke-width:1px;stroke-linecap:butt;stroke-linejoin:miter;stroke-miterlimit:4;stroke-dasharray:none;stroke-dashoffset:0;stroke-opacity:1;color-rendering:auto;image-rendering:auto;shape-rendering:auto;text-rendering:auto;enable-background:accumulate"
         id="path4202"
         inkscape:connector-curvature="0" />
      <path
         d="m 286.97568,949.16579 c 0.80809,0 1.35276,0.19943 1.72851,0.55469 0.25996,0.24578 0.35897,0.74554 0.48047,1.21093 l -4.83203,0.0195 c 0.14372,-0.36513 0.22719,-0.74186 0.57617,-1.07032 0.50207,-0.47253 1.15086,-0.71484 2.04688,-0.71484 z m 0.0273,-3.04295 c -0.54207,0 -1.06868,0.0463 -1.57812,0.14063 l -0.004,0 -0.004,0.002 c -1.03033,0.20988 -1.95381,0.64505 -2.74218,1.29883 -0.76222,0.62882 -1.33813,1.3781 -1.70704,2.23242 l 0,0.002 -0.002,0.002 c -0.34347,0.8205 -0.52408,1.70139 -0.54297,2.62695 l 0,0.004 0,0.006 c 0,0.92858 0.17089,1.81122 0.51563,2.63477 0.35196,0.84081 0.92171,1.58239 1.68359,2.21094 l 0.004,0.002 0.002,0.004 c 0.7751,0.62008 1.70648,1.03218 2.76563,1.24023 l 0.006,0.002 0.008,0.002 c 0.45481,0.0758 0.93292,0.11328 1.43554,0.11328 0.37069,0 0.74284,-0.0196 1.11329,-0.0566 l 0.004,0 0.004,0 c 0.7985,-0.0928 1.48437,-0.2709 2.0625,-0.54883 1.00899,-0.46713 1.80645,-1.04971 2.36328,-1.76563 l 0.10547,-0.13476 0,-0.17188 0,-0.31054 -2.57031,-1.54102 -0.29297,0.29297 c -0.28595,0.27089 -0.62327,0.48133 -1.02539,0.63672 -0.42987,0.14808 -0.76987,0.23506 -0.99219,0.26367 -0.2249,0.0136 -0.42165,0.005 -0.58203,-0.0215 l -0.0215,-0.004 -0.0195,0 c -1.02469,-0.084 -1.73117,-0.31764 -2.125,-0.61523 -0.22366,-0.17614 -0.33736,-0.52737 -0.49609,-0.80469 l 8.17578,-0.0273 0.0742,-0.41015 c 0.18648,-1.04432 0.18801,-2.04692 -0.002,-2.99805 l 0,-0.002 c -0.19441,-0.98979 -0.65879,-1.88467 -1.36718,-2.65235 l -0.002,-0.002 c -0.71281,-0.79106 -1.67333,-1.30576 -2.82031,-1.53515 l -0.006,-0.002 -0.006,0 c -0.43966,-0.0765 -0.91144,-0.11328 -1.41406,-0.11328 z"
         style="color:#000000;font-style:normal;font-variant:normal;font-weight:500;font-stretch:normal;font-size:26.55158234px;line-height:125%;font-family:BetecknaLowerCase;-inkscape-font-specification:'BetecknaLowerCase, Medium';text-indent:0;text-align:start;text-decoration:none;text-decoration-line:none;text-decoration-style:solid;text-decoration-color:#000000;letter-spacing:0px;word-spacing:0px;text-transform:none;direction:ltr;block-progression:tb;writing-mode:lr-tb;baseline-shift:baseline;text-anchor:start;white-space:normal;clip-rule:nonzero;display:inline;overflow:visible;visibility:visible;opacity:1;isolation:auto;mix-blend-mode:normal;color-interpolation:sRGB;color-interpolation-filters:linearRGB;solid-color:#000000;solid-opacity:1;fill:#000080;fill-opacity:1;fill-rule:nonzero;stroke:none;stroke-width:1px;stroke-linecap:butt;stroke-linejoin:miter;stroke-miterlimit:4;stroke-dasharray:none;stroke-dashoffset:0;stroke-opacity:1;color-rendering:auto;image-rendering:auto;shape-rendering:auto;text-rendering:auto;enable-background:accumulate"
         id="path4200"
         inkscape:connector-curvature="0" />
      <path
         d="m 261.53818,949.28884 c 0.46608,-0.0932 0.88827,-0.0824 1.28906,0.0215 l 0.002,0 0.002,0 c 0.40595,0.10149 0.76252,0.3055 1.0957,0.63867 l 0.004,0.004 0.004,0.004 c 0.31204,0.29786 0.53526,0.69129 0.67578,1.20899 0.0249,0.17563 0.0552,0.63447 0.0723,1.33594 0.0172,0.68983 -0.0229,1.17173 -0.0625,1.32031 -0.15149,0.55925 -0.43013,0.98197 -0.85938,1.32422 -0.43611,0.32935 -0.8875,0.4903 -1.40234,0.50586 -0.53958,-10e-4 -1.0686,-0.0947 -1.59766,-0.28711 -0.47636,-0.17322 -0.86755,-0.49026 -1.20704,-0.9961 -0.31659,-0.51605 -0.48242,-1.11116 -0.48242,-1.82617 0,-0.62394 0.1196,-1.16129 0.34767,-1.63476 0.25279,-0.48755 0.55345,-0.84272 0.90234,-1.08985 l 0.006,-0.004 0.006,-0.004 c 0.36527,-0.27395 0.75432,-0.44222 1.19141,-0.51758 l 0.006,-0.002 0.008,-0.002 z m 0.73047,-3.1387 c -0.80849,-0.0572 -1.60619,0.0493 -2.37501,0.31836 -0.7634,0.26719 -1.45601,0.66106 -2.06836,1.17774 -0.6338,0.53476 -1.13067,1.24341 -1.49218,2.09961 -0.36523,0.86501 -0.54493,1.82914 -0.54493,2.87695 l 0,0.004 0,0.004 c 0.0188,1.10711 0.24538,2.11577 0.68945,3.00391 l 0.004,0.006 0.004,0.006 c 0.45693,0.85676 1.05059,1.54474 1.77929,2.03711 l 0.004,0.002 0.004,0.004 c 0.70427,0.45681 1.4789,0.78124 2.31251,0.9707 0.84638,0.19236 1.71007,0.20174 2.57227,0.0293 0.58856,-0.11532 1.0886,-0.40247 1.60547,-0.65821 l 0,0.58789 3.41601,0 0.0274,-12.33789 -3.47071,0 0,0.55469 c -0.0698,-0.0366 -0.0995,-0.10628 -0.17383,-0.13867 -0.70993,-0.32502 -1.47939,-0.50781 -2.29296,-0.54688 z"
         style="color:#000000;font-style:normal;font-variant:normal;font-weight:500;font-stretch:normal;font-size:26.55158234px;line-height:125%;font-family:BetecknaLowerCase;-inkscape-font-specification:'BetecknaLowerCase, Medium';text-indent:0;text-align:start;text-decoration:none;text-decoration-line:none;text-decoration-style:solid;text-decoration-color:#000000;letter-spacing:0px;word-spacing:0px;text-transform:none;direction:ltr;block-progression:tb;writing-mode:lr-tb;baseline-shift:baseline;text-anchor:start;white-space:normal;clip-rule:nonzero;display:inline;overflow:visible;visibility:visible;opacity:1;isolation:auto;mix-blend-mode:normal;color-interpolation:sRGB;color-interpolation-filters:linearRGB;solid-color:#000000;solid-opacity:1;fill:#ffffff;fill-opacity:1;fill-rule:nonzero;stroke:none;stroke-width:1px;stroke-linecap:butt;stroke-linejoin:miter;stroke-miterlimit:4;stroke-dasharray:none;stroke-dashoffset:0;stroke-opacity:1;color-rendering:auto;image-rendering:auto;shape-rendering:auto;text-rendering:auto;enable-background:accumulate"
         id="path4198"
         inkscape:connector-curvature="0" />
      <path
         d="m 331.39169,949.28884 c 0.46608,-0.0932 0.88828,-0.0824 1.28906,0.0215 l 0.002,0 0.002,0 c 0.40595,0.10149 0.76253,0.3055 1.0957,0.63867 l 0.004,0.004 0.004,0.004 c 0.31203,0.29786 0.53525,0.69129 0.67578,1.20899 0.0249,0.17563 0.0551,0.63447 0.0723,1.33594 0.0173,0.68983 -0.0229,1.17173 -0.0625,1.32031 -0.15148,0.55925 -0.43012,0.98197 -0.85937,1.32422 -0.43612,0.32935 -0.88751,0.4903 -1.40234,0.50586 -0.53958,-10e-4 -1.0686,-0.0947 -1.59766,-0.28711 -0.47636,-0.17322 -0.86754,-0.49026 -1.20703,-0.9961 -0.31659,-0.51605 -0.48242,-1.11116 -0.48242,-1.82617 0,-0.62394 0.11959,-1.16129 0.34765,-1.63476 0.2528,-0.48755 0.55346,-0.84272 0.90235,-1.08985 l 0.006,-0.004 0.006,-0.004 c 0.36527,-0.27395 0.75432,-0.44222 1.19141,-0.51758 l 0.006,-0.002 0.008,-0.002 z m 0.73047,-3.1387 c -0.80848,-0.0572 -1.60619,0.0493 -2.375,0.31836 -0.7634,0.26719 -1.456,0.66106 -2.06836,1.17774 -0.63379,0.53476 -1.13068,1.24341 -1.49219,2.09961 -0.36523,0.86501 -0.54492,1.82914 -0.54492,2.87695 l 0,0.004 0,0.004 c 0.0188,1.10711 0.24539,2.11577 0.68946,3.00391 l 0.004,0.006 0.004,0.006 c 0.45694,0.85676 1.0506,1.54474 1.77929,2.03711 l 0.004,0.002 0.004,0.004 c 0.70425,0.45681 1.47889,0.78124 2.3125,0.9707 0.84638,0.19236 1.71006,0.20174 2.57226,0.0293 0.58857,-0.11532 1.08861,-0.40247 1.60547,-0.65821 l 0,0.58789 3.41602,0 0.0273,-12.33789 -3.4707,0 0,0.55469 c -0.0698,-0.0366 -0.0995,-0.10628 -0.17383,-0.13867 -0.70993,-0.32502 -1.47939,-0.50781 -2.29297,-0.54688 z"
         style="color:#000000;font-style:normal;font-variant:normal;font-weight:500;font-stretch:normal;font-size:26.55158234px;line-height:125%;font-family:BetecknaLowerCase;-inkscape-font-specification:'BetecknaLowerCase, Medium';text-indent:0;text-align:start;text-decoration:none;text-decoration-line:none;text-decoration-style:solid;text-decoration-color:#000000;letter-spacing:0px;word-spacing:0px;text-transform:none;direction:ltr;block-progression:tb;writing-mode:lr-tb;baseline-shift:baseline;text-anchor:start;white-space:normal;clip-rule:nonzero;display:inline;overflow:visible;visibility:visible;opacity:1;isolation:auto;mix-blend-mode:normal;color-interpolation:sRGB;color-interpolation-filters:linearRGB;solid-color:#000000;solid-opacity:1;fill:#000080;fill-opacity:1;fill-rule:nonzero;stroke:none;stroke-width:1px;stroke-linecap:butt;stroke-linejoin:miter;stroke-miterlimit:4;stroke-dasharray:none;stroke-dashoffset:0;stroke-opacity:1;color-rendering:auto;image-rendering:auto;shape-rendering:auto;text-rendering:auto;enable-background:accumulate"
         id="text4155"
         inkscape:connector-curvature="0" />
    </g>
  </g>
</svg>
