<?xml version="1.0" encoding="UTF-8" standalone="no"?>
<!-- Created with Inkscape (http://www.inkscape.org/) -->

<svg
   xmlns:dc="http://purl.org/dc/elements/1.1/"
   xmlns:cc="http://creativecommons.org/ns#"
   xmlns:rdf="http://www.w3.org/1999/02/22-rdf-syntax-ns#"
   xmlns:svg="http://www.w3.org/2000/svg"
   xmlns="http://www.w3.org/2000/svg"
   xmlns:sodipodi="http://sodipodi.sourceforge.net/DTD/sodipodi-0.dtd"
   xmlns:inkscape="http://www.inkscape.org/namespaces/inkscape"
   width="128"
   height="128"
   viewBox="0 0 128 128"
   id="svg2"
   version="1.1"
   inkscape:version="0.91 r13725"
   sodipodi:docname="asesora.svg"
   inkscape:export-filename="/home/elferrer/cajondesastre/asesora/app/templates/favicon/asesora.png"
   inkscape:export-xdpi="15.764436"
   inkscape:export-ydpi="15.764436">
  <defs
     id="defs4">
    <filter
       inkscape:collect="always"
       style="color-interpolation-filters:sRGB"
       id="filter4143"
       x="-0.011999551"
       width="1.0239991"
       y="-0.012000449"
       height="1.0240009">
      <feGaussianBlur
         inkscape:collect="always"
         stdDeviation="0.59349545"
         id="feGaussianBlur4145" />
    </filter>
    <filter
       inkscape:collect="always"
       style="color-interpolation-filters:sRGB"
       id="filter4215"
       x="-0.27719897"
       width="1.5543979"
       y="-0.27721965"
       height="1.5544393">
      <feGaussianBlur
         inkscape:collect="always"
         stdDeviation="13.710206"
         id="feGaussianBlur4217" />
    </filter>
  </defs>
  <sodipodi:namedview
     id="base"
     pagecolor="#ffffff"
     bordercolor="#666666"
     borderopacity="1.0"
     inkscape:pageopacity="0.0"
     inkscape:pageshadow="2"
     inkscape:zoom="6.40625"
     inkscape:cx="63.063414"
     inkscape:cy="60.097561"
     inkscape:document-units="px"
     inkscape:current-layer="layer1"
     showgrid="false"
     showguides="true"
     inkscape:window-width="1920"
     inkscape:window-height="1015"
     inkscape:window-x="0"
     inkscape:window-y="0"
     inkscape:window-maximized="1"
     units="px" />
  <metadata
     id="metadata7">
    <rdf:RDF>
      <cc:Work
         rdf:about="">
        <dc:format>image/svg+xml</dc:format>
        <dc:type
           rdf:resource="http://purl.org/dc/dcmitype/StillImage" />
        <dc:title />
      </cc:Work>
    </rdf:RDF>
  </metadata>
  <g
     inkscape:label="Layer 1"
     inkscape:groupmode="layer"
     id="layer1"
     transform="translate(0,-924.36216)">
    <path
       transform="matrix(0.67771381,0,0,0.02787806,21.279974,1021.7353)"
       style="fill:#1866a9;fill-opacity:0.38235294;stroke:none;filter:url(#filter4215)"
       d="m 64,929.01483 c 32.880878,0 59.35176,26.46891 59.35176,59.34733 0,32.87844 -26.470882,59.34734 -59.35176,59.34734 -32.880878,0 -59.3517647,-26.4689 -59.3517647,-59.34734 0,-32.87842 26.4708867,-59.34733 59.3517647,-59.34733 z"
       id="rect4148"
       inkscape:connector-curvature="0" />
    <rect
       style="fill:#35cebe;fill-opacity:1;stroke:none;filter:url(#filter4143)"
       id="rect4147"
       width="118.70353"
       height="118.69465"
       x="4.6482353"
       y="927.01483"
       rx="21.572151"
       ry="21.572151" />
    <path
       inkscape:connector-curvature="0"
       id="path4198"
       style="color:#000000;font-style:normal;font-variant:normal;font-weight:500;font-stretch:normal;font-size:26.55158234px;line-height:125%;font-family:BetecknaLowerCase;-inkscape-font-specification:'BetecknaLowerCase, Medium';text-indent:0;text-align:start;text-decoration:none;text-decoration-line:none;text-decoration-style:solid;text-decoration-color:#000000;letter-spacing:0px;word-spacing:0px;text-transform:none;direction:ltr;block-progression:tb;writing-mode:lr-tb;baseline-shift:baseline;text-anchor:start;white-space:normal;clip-rule:nonzero;display:inline;overflow:visible;visibility:visible;opacity:1;isolation:auto;mix-blend-mode:normal;color-interpolation:sRGB;color-interpolation-filters:linearRGB;solid-color:#000000;solid-opacity:1;fill:#ffffff;fill-opacity:1;fill-rule:nonzero;stroke:none;stroke-width:1px;stroke-linecap:butt;stroke-linejoin:miter;stroke-miterlimit:4;stroke-dasharray:none;stroke-dashoffset:0;stroke-opacity:1;color-rendering:auto;image-rendering:auto;shape-rendering:auto;text-rendering:auto;enable-background:accumulate"
       d="m 60.914265,964.97772 c 3.132541,-0.62377 5.970086,-0.55229 8.663809,0.14295 l 0.01365,0 0.01365,0 c 2.728399,0.68223 5.124918,2.05322 7.364229,4.29227 l 0.02664,0 0.02665,0 c 2.097228,2.00188 3.597497,4.64638 4.541934,8.12581 0.167376,1.17995 0.371009,4.26434 0.48595,8.97898 0.115592,4.63595 -0.153926,7.87501 -0.420066,8.87365 -1.018164,3.75882 -2.89091,6.59962 -5.775914,8.89962 -2.931104,2.2137 -5.964907,3.2955 -9.425164,3.4002 -3.626528,-0.01 -7.182086,-0.6367 -10.737914,-1.9297 -3.201628,-1.1645 -5.830824,-3.295 -8.112545,-6.6945 -2.127813,-3.46841 -3.242354,-7.46822 -3.242354,-12.27385 0,-4.19345 0.803828,-7.80544 2.336695,-10.98728 1.699009,-3.27672 3.719749,-5.6639 6.064652,-7.32467 l 0.04029,0 0.04029,0 c 2.454985,-1.8414 5.069801,-2.97263 8.007495,-3.47878 l 0.04029,0 0.05393,0 z m 4.909507,-21.09491 c -5.433877,-0.38335 -10.79524,0.33138 -15.962498,2.13965 -5.130833,1.79592 -9.785882,4.44301 -13.901507,7.9153 -4.259785,3.59443 -7.599259,8.35712 -10.028981,14.11199 -2.454717,5.81335 -3.662485,12.29335 -3.662485,19.33607 l 0,0 0,0 c 0.126377,7.44029 1.649205,14.21978 4.63381,20.18908 l 0.02664,0.066 0.02665,0.066 c 3.071042,5.7581 7.061043,10.3824 11.958658,13.6916 l 0.02665,0 0.02664,0 c 4.733417,3.0702 9.939725,5.2506 15.54244,6.5242 5.688542,1.2923 11.493428,1.3554 17.288295,0.1948 3.955726,-0.7751 7.316506,-2.7047 10.790407,-4.4241 l 0,3.9512 22.959089,0 0.18413,-82.92286 -23.326715,0 0,3.72764 c -0.469123,-0.24691 -0.668746,-0.71407 -1.168316,-0.93175 -4.771459,-2.18447 -9.943025,-3.41316 -15.411046,-3.67565 z"
       inkscape:export-xdpi="15"
       inkscape:export-ydpi="15" />
  </g>
</svg>
